HIERARCHY
ROOT character_B_root
{
	OFFSET 0.000000 0.000000 0.000000
	CHANNELS 6 Xposition Yposition Zposition Xrotation Yrotation Zrotation
	JOINT character_B_pelvis
	{
		OFFSET 0.000000 0.000000 0.000000
		CHANNELS 3 Xrotation Yrotation Zrotation
		JOINT character_B_spine
		{
			OFFSET -0.005949 0.551378 0.000000
			CHANNELS 3 Xrotation Yrotation Zrotation
			JOINT character_B_head
			{
				OFFSET -0.011221 0.241134 0.000000
				CHANNELS 3 Xrotation Yrotation Zrotation
				JOINT character_B_nose
				{
					OFFSET -0.004159 -0.142665 -0.000261
					CHANNELS 3 Xrotation Yrotation Zrotation
					End Site
					{
						OFFSET 0.000000 0.050000 0.000000
					}
				}
			}
			JOINT character_B_left_shoulder
			{
				OFFSET 0.093188 -0.066956 0.092540
				CHANNELS 3 Xrotation Yrotation Zrotation
				JOINT character_B_left_elbow
				{
					OFFSET 0.026481 -0.252143 -0.089385
					CHANNELS 3 Xrotation Yrotation Zrotation
					JOINT character_B_left_wrist
					{
						OFFSET -0.001396 -0.164778 -0.154831
						CHANNELS 3 Xrotation Yrotation Zrotation
						End Site
						{
							OFFSET 0.000000 0.050000 0.000000
						}
					}
				}
			}
			JOINT character_B_right_shoulder
			{
				OFFSET -0.052646 -0.054758 0.152841
				CHANNELS 3 Xrotation Yrotation Zrotation
				JOINT character_B_right_elbow
				{
					OFFSET -0.025750 -0.252567 -0.055740
					CHANNELS 3 Xrotation Yrotation Zrotation
					JOINT character_B_right_wrist
					{
						OFFSET 0.022565 -0.178373 -0.161123
						CHANNELS 3 Xrotation Yrotation Zrotation
						End Site
						{
							OFFSET 0.000000 0.050000 0.000000
						}
					}
				}
			}
		}
		JOINT character_B_left_hip
		{
			OFFSET 0.053047 -0.014449 0.105832
			CHANNELS 3 Xrotation Yrotation Zrotation
			JOINT character_B_left_knee
			{
				OFFSET 0.010852 -0.388560 0.128200
				CHANNELS 3 Xrotation Yrotation Zrotation
				JOINT character_B_left_ankle
				{
					OFFSET -0.005897 -0.374408 0.161260
					CHANNELS 3 Xrotation Yrotation Zrotation
					JOINT character_B_left_big_toe
					{
						OFFSET 0.012109 -0.098215 0.034452
						CHANNELS 3 Xrotation Yrotation Zrotation
						End Site
						{
							OFFSET 0.000000 0.050000 0.000000
						}
					}
					JOINT character_B_left_small_toe
					{
						OFFSET 0.041617 -0.095586 0.019459
						CHANNELS 3 Xrotation Yrotation Zrotation
						End Site
						{
							OFFSET 0.000000 0.050000 0.000000
						}
					}
					JOINT character_B_left_heel
					{
						OFFSET -0.014884 -0.052778 0.025198
						CHANNELS 3 Xrotation Yrotation Zrotation
						End Site
						{
							OFFSET 0.000000 0.050000 0.000000
						}
					}
				}
			}
		}
		JOINT character_B_right_hip
		{
			OFFSET -0.043381 -0.011457 0.270438
			CHANNELS 3 Xrotation Yrotation Zrotation
			JOINT character_B_right_knee
			{
				OFFSET 0.014721 -0.382947 0.164918
				CHANNELS 3 Xrotation Yrotation Zrotation
				JOINT character_B_right_ankle
				{
					OFFSET 0.029970 -0.363014 0.179744
					CHANNELS 3 Xrotation Yrotation Zrotation
					JOINT character_B_right_big_toe
					{
						OFFSET 0.007171 -0.100675 0.041990
						CHANNELS 3 Xrotation Yrotation Zrotation
						End Site
						{
							OFFSET 0.000000 0.050000 0.000000
						}
					}
					JOINT character_B_right_small_toe
					{
						OFFSET -0.022736 -0.093093 0.035638
						CHANNELS 3 Xrotation Yrotation Zrotation
						End Site
						{
							OFFSET 0.000000 0.050000 0.000000
						}
					}
					JOINT character_B_right_heel
					{
						OFFSET 0.012696 -0.052984 0.028899
						CHANNELS 3 Xrotation Yrotation Zrotation
						End Site
						{
							OFFSET 0.000000 0.050000 0.000000
						}
					}
				}
			}
		}
	}
}
MOTION
Frames: 5
Frame Time: 0.03333333
0.394069 -0.423986 2.337853 0.000000 0.000000 0.000000 -2.275912 3.581858 2.575815 4.926304 -2.615605 10.082119 -2.985682 -0.530332 -20.390509 -0.000000 0.000000 -0.000000 -14.492656 15.795713 -42.621496 74.633169 45.705981 -70.270961 0.000000 0.000000 0.000000 17.208465 -7.104512 -7.299310 54.144898 7.657997 -42.991842 0.000000 0.000000 0.000000 20.293960 -1.811727 2.511887 0.024703 10.352855 17.045029 119.296792 -16.792058 -173.750896 0.000000 0.000000 0.000000 0.000000 0.000000 0.000000 0.000000 0.000000 0.000000 25.672697 0.734423 5.030969 -21.994207 6.941901 10.934688 15.865803 -3.469594 -36.256193 -0.000000 0.000000 -0.000000 -0.000000 0.000000 -0.000000 -0.000000 0.000000 -0.000000
0.404289 -0.353532 2.359458 0.000000 0.000000 0.000000 -2.378905 3.034069 3.641809 9.320672 -2.223377 9.558942 -7.246686 0.256023 -19.877826 -0.000000 0.000000 -0.000000 -20.890058 14.619146 -37.266078 71.079728 44.215173 -70.310122 -0.000000 0.000000 -0.000000 17.111436 -7.609147 -2.918609 41.926224 7.592955 -43.714755 0.000000 0.000000 -0.000000 20.442629 -2.501385 -0.271578 0.153223 12.064097 19.930831 124.075992 -5.766444 -162.631686 0.000000 0.000000 -0.000000 0.000000 0.000000 -0.000000 0.000000 0.000000 -0.000000 24.877080 -0.139855 2.586364 -15.233552 10.809424 16.757371 12.939225 -6.631372 -39.124839 0.000000 0.000000 -0.000000 0.000000 0.000000 -0.000000 0.000000 0.000000 -0.000000
0.415163 -0.434716 2.359434 0.000000 0.000000 0.000000 -2.876836 1.824563 5.140765 15.350157 -5.317707 9.084744 -12.090976 5.102637 -21.829404 -0.000000 0.000000 -0.000000 -28.231452 16.511228 -29.372835 66.782074 41.037944 -66.488050 0.000000 0.000000 0.000000 14.416363 -3.746264 -1.698533 31.630097 9.058113 -44.466705 0.000000 0.000000 0.000000 20.936072 -3.187742 -4.496471 -4.592428 11.997867 21.927788 129.648008 0.224125 -160.845324 -0.000000 0.000000 0.000000 -0.000000 0.000000 0.000000 -0.000000 0.000000 0.000000 23.497525 0.903740 1.657382 -9.202406 12.867418 18.365267 10.945932 -10.153904 -44.226968 -0.000000 0.000000 0.000000 -0.000000 0.000000 0.000000 -0.000000 0.000000 0.000000
0.425660 -0.441039 2.327770 0.000000 0.000000 0.000000 -3.812440 1.713491 7.754704 18.918942 -7.771736 8.537627 -7.059529 4.712519 -24.189880 -0.000000 0.000000 0.000000 -32.902323 14.630937 -20.261228 59.684903 37.125378 -62.788716 -0.000000 0.000000 0.000000 13.813138 -2.617161 -3.716062 23.754694 14.269728 -51.489218 -0.000000 0.000000 -0.000000 16.861623 -6.265294 -12.763123 -2.905971 13.771284 27.007780 133.427922 4.831876 -155.442382 -0.000000 0.000000 -0.000000 -0.000000 0.000000 -0.000000 -0.000000 0.000000 -0.000000 22.246153 0.551285 0.213625 -4.272883 13.852597 18.818653 9.621313 -11.565651 -45.683319 0.000000 0.000000 0.000000 0.000000 0.000000 0.000000 0.000000 0.000000 0.000000
0.432524 -0.445798 2.289202 0.000000 0.000000 0.000000 -4.588233 1.265231 9.965944 17.013772 -7.621921 7.653570 -2.710218 3.037144 -28.145477 0.000000 0.000000 0.000000 -30.966793 10.388946 -13.920155 52.962377 34.706769 -61.881666 -0.000000 0.000000 0.000000 16.493292 -4.147147 -7.967313 17.679619 21.031965 -56.565760 0.000000 0.000000 -0.000000 11.822422 -7.560261 -20.236312 0.732392 15.763532 31.019522 135.615062 6.643545 -151.421649 -0.000000 0.000000 0.000000 -0.000000 0.000000 0.000000 -0.000000 0.000000 0.000000 21.072155 0.578740 -1.258547 -0.515941 14.453405 19.167658 8.769403 -11.919450 -45.583023 -0.000000 0.000000 -0.000000 -0.000000 0.000000 -0.000000 -0.000000 0.000000 -0.000000
